<?xml version="1.0" standalone="no"?>
<!DOCTYPE svg PUBLIC "-//W3C//DTD SVG 20010904//EN"
 "http://www.w3.org/TR/2001/REC-SVG-20010904/DTD/svg10.dtd">
<svg version="1.0" xmlns="http://www.w3.org/2000/svg"
 width="461.000000pt" height="461.000000pt" viewBox="0 0 461.000000 461.000000"
 preserveAspectRatio="xMidYMid meet">
<metadata>
Created by potrace 1.14, written by Peter Selinger 2001-2017
</metadata>
<g transform="translate(0.000000,461.000000) scale(0.100000,-0.100000)"
fill="#000000" stroke="none">
<path d="M2098 4605 c-2 -1 -25 -5 -53 -9 -81 -10 -195 -31 -260 -47 -531
-138 -1015 -527 -1269 -1022 -69 -135 -111 -245 -146 -382 -31 -121 -36 -149
-56 -290 -16 -117 -10 -446 11 -570 3 -16 8 -46 11 -65 13 -84 58 -254 83
-315 5 -11 18 -47 31 -80 30 -81 101 -229 112 -233 4 -2 8 -8 8 -13 0 -14 95
-149 148 -210 93 -107 291 -300 433 -421 90 -77 96 -82 129 -108 18 -14 37
-30 44 -35 6 -6 40 -33 76 -60 36 -27 66 -53 68 -57 2 -4 10 -8 17 -8 7 0 15
-3 17 -8 2 -4 39 -34 83 -67 95 -71 202 -159 230 -190 27 -30 128 -144 155
-175 51 -60 152 -160 161 -160 5 0 9 -4 9 -8 0 -5 27 -22 59 -39 49 -25 69
-30 113 -27 30 1 65 8 78 13 70 30 153 104 254 226 199 239 221 261 378 376
77 57 146 109 152 114 6 6 27 21 46 35 19 13 40 28 45 32 6 5 51 40 100 80
284 225 510 465 657 698 35 56 131 237 135 255 1 6 14 39 29 75 74 180 108
368 109 605 0 237 -17 379 -79 630 -48 198 -203 518 -318 660 -9 11 -40 49
-69 85 -90 110 -241 254 -350 333 -32 23 -183 121 -189 122 -3 1 -34 15 -70
32 -151 72 -303 131 -383 147 -12 3 -47 12 -77 21 -30 9 -73 18 -95 21 -21 3
-42 7 -46 9 -3 3 -31 7 -60 11 -30 3 -65 8 -79 11 -26 5 -377 13 -382 8z"/>
</g>
</svg>
